<svg width="3034" height="1696" xmlns="http://www.w3.org/2000/svg" xmlns:xlink="http://www.w3.org/1999/xlink" xml:space="preserve" overflow="hidden"><defs><clipPath id="clip0"><rect x="36" y="59" width="3034" height="1696"/></clipPath><linearGradient x1="1553.5" y1="61.5" x2="1553.5" y2="1744.5" gradientUnits="userSpaceOnUse" spreadMethod="reflect" id="fill1"><stop offset="0" stop-color="#F7FAFD" stop-opacity="1"/><stop offset="0.51" stop-color="#F7FAFD" stop-opacity="1"/><stop offset="0.73" stop-color="#B5D2EC" stop-opacity="1"/><stop offset="0.83" stop-color="#B5D2EC" stop-opacity="1"/><stop offset="1" stop-color="#CEE1F2" stop-opacity="1"/></linearGradient><linearGradient x1="1553.5" y1="61.5" x2="1553.5" y2="1744.5" gradientUnits="userSpaceOnUse" spreadMethod="reflect" id="fill2"><stop offset="0" stop-color="#F7FAFD" stop-opacity="1"/><stop offset="0.51" stop-color="#F7FAFD" stop-opacity="1"/><stop offset="0.73" stop-color="#B5D2EC" stop-opacity="1"/><stop offset="0.83" stop-color="#B5D2EC" stop-opacity="1"/><stop offset="1" stop-color="#CEE1F2" stop-opacity="1"/></linearGradient><linearGradient x1="1553.5" y1="61.5" x2="1553.5" y2="1744.5" gradientUnits="userSpaceOnUse" spreadMethod="reflect" id="fill3"><stop offset="0" stop-color="#F7FAFD" stop-opacity="1"/><stop offset="0.51" stop-color="#F7FAFD" stop-opacity="1"/><stop offset="0.73" stop-color="#B5D2EC" stop-opacity="1"/><stop offset="0.83" stop-color="#B5D2EC" stop-opacity="1"/><stop offset="1" stop-color="#CEE1F2" stop-opacity="1"/></linearGradient><linearGradient x1="1553.5" y1="61.5" x2="1553.5" y2="1744.5" gradientUnits="userSpaceOnUse" spreadMethod="reflect" id="fill4"><stop offset="0" stop-color="#F7FAFD" stop-opacity="1"/><stop offset="0.51" stop-color="#F7FAFD" stop-opacity="1"/><stop offset="0.73" stop-color="#B5D2EC" stop-opacity="1"/><stop offset="0.83" stop-color="#B5D2EC" stop-opacity="1"/><stop offset="1" stop-color="#CEE1F2" stop-opacity="1"/></linearGradient><linearGradient x1="1553.5" y1="61.5" x2="1553.5" y2="1744.5" gradientUnits="userSpaceOnUse" spreadMethod="reflect" id="fill5"><stop offset="0" stop-color="#F7FAFD" stop-opacity="1"/><stop offset="0.51" stop-color="#F7FAFD" stop-opacity="1"/><stop offset="0.73" stop-color="#B5D2EC" stop-opacity="1"/><stop offset="0.83" stop-color="#B5D2EC" stop-opacity="1"/><stop offset="1" stop-color="#CEE1F2" stop-opacity="1"/></linearGradient><linearGradient x1="-660.892" y1="-316" x2="-660.892" y2="1367" gradientUnits="userSpaceOnUse" spreadMethod="reflect" id="fill6"><stop offset="0" stop-color="#F7FAFD" stop-opacity="1"/><stop offset="0.51" stop-color="#F7FAFD" stop-opacity="1"/><stop offset="0.73" stop-color="#B5D2EC" stop-opacity="1"/><stop offset="0.83" stop-color="#B5D2EC" stop-opacity="1"/><stop offset="1" stop-color="#CEE1F2" stop-opacity="1"/></linearGradient><linearGradient x1="1553.5" y1="61.5" x2="1553.5" y2="1744.5" gradientUnits="userSpaceOnUse" spreadMethod="reflect" id="fill7"><stop offset="0" stop-color="#F7FAFD" stop-opacity="1"/><stop offset="0.51" stop-color="#F7FAFD" stop-opacity="1"/><stop offset="0.73" stop-color="#B5D2EC" stop-opacity="1"/><stop offset="0.83" stop-color="#B5D2EC" stop-opacity="1"/><stop offset="1" stop-color="#CEE1F2" stop-opacity="1"/></linearGradient><linearGradient x1="1553.5" y1="61.5" x2="1553.5" y2="1744.5" gradientUnits="userSpaceOnUse" spreadMethod="reflect" id="fill8"><stop offset="0" stop-color="#F7FAFD" stop-opacity="1"/><stop offset="0.51" stop-color="#F7FAFD" stop-opacity="1"/><stop offset="0.73" stop-color="#B5D2EC" stop-opacity="1"/><stop offset="0.83" stop-color="#B5D2EC" stop-opacity="1"/><stop offset="1" stop-color="#CEE1F2" stop-opacity="1"/></linearGradient><linearGradient x1="164.668" y1="-207" x2="164.668" y2="1476" gradientUnits="userSpaceOnUse" spreadMethod="reflect" id="fill9"><stop offset="0" stop-color="#F7FAFD" stop-opacity="1"/><stop offset="0.51" stop-color="#F7FAFD" stop-opacity="1"/><stop offset="0.73" stop-color="#B5D2EC" stop-opacity="1"/><stop offset="0.83" stop-color="#B5D2EC" stop-opacity="1"/><stop offset="1" stop-color="#CEE1F2" stop-opacity="1"/></linearGradient><linearGradient x1="112.965" y1="-448" x2="112.965" y2="1235" gradientUnits="userSpaceOnUse" spreadMethod="reflect" id="fill10"><stop offset="0" stop-color="#F7FAFD" stop-opacity="1"/><stop offset="0.51" stop-color="#F7FAFD" stop-opacity="1"/><stop offset="0.73" stop-color="#B5D2EC" stop-opacity="1"/><stop offset="0.83" stop-color="#B5D2EC" stop-opacity="1"/><stop offset="1" stop-color="#CEE1F2" stop-opacity="1"/></linearGradient><linearGradient x1="124.373" y1="-649" x2="124.373" y2="1034" gradientUnits="userSpaceOnUse" spreadMethod="reflect" id="fill11"><stop offset="0" stop-color="#F7FAFD" stop-opacity="1"/><stop offset="0.51" stop-color="#F7FAFD" stop-opacity="1"/><stop offset="0.73" stop-color="#B5D2EC" stop-opacity="1"/><stop offset="0.83" stop-color="#B5D2EC" stop-opacity="1"/><stop offset="1" stop-color="#CEE1F2" stop-opacity="1"/></linearGradient><linearGradient x1="205.538" y1="-781" x2="205.538" y2="902" gradientUnits="userSpaceOnUse" spreadMethod="reflect" id="fill12"><stop offset="0" stop-color="#F7FAFD" stop-opacity="1"/><stop offset="0.51" stop-color="#F7FAFD" stop-opacity="1"/><stop offset="0.73" stop-color="#B5D2EC" stop-opacity="1"/><stop offset="0.83" stop-color="#B5D2EC" stop-opacity="1"/><stop offset="1" stop-color="#CEE1F2" stop-opacity="1"/></linearGradient><linearGradient x1="499.296" y1="-713" x2="499.296" y2="970" gradientUnits="userSpaceOnUse" spreadMethod="reflect" id="fill13"><stop offset="0" stop-color="#F7FAFD" stop-opacity="1"/><stop offset="0.51" stop-color="#F7FAFD" stop-opacity="1"/><stop offset="0.73" stop-color="#B5D2EC" stop-opacity="1"/><stop offset="0.83" stop-color="#B5D2EC" stop-opacity="1"/><stop offset="1" stop-color="#CEE1F2" stop-opacity="1"/></linearGradient><linearGradient x1="732.484" y1="-839" x2="732.484" y2="844" gradientUnits="userSpaceOnUse" spreadMethod="reflect" id="fill14"><stop offset="0" stop-color="#F7FAFD" stop-opacity="1"/><stop offset="0.51" stop-color="#F7FAFD" stop-opacity="1"/><stop offset="0.73" stop-color="#B5D2EC" stop-opacity="1"/><stop offset="0.83" stop-color="#B5D2EC" stop-opacity="1"/><stop offset="1" stop-color="#CEE1F2" stop-opacity="1"/></linearGradient><linearGradient x1="958.161" y1="-737" x2="958.161" y2="946" gradientUnits="userSpaceOnUse" spreadMethod="reflect" id="fill15"><stop offset="0" stop-color="#F7FAFD" stop-opacity="1"/><stop offset="0.51" stop-color="#F7FAFD" stop-opacity="1"/><stop offset="0.73" stop-color="#B5D2EC" stop-opacity="1"/><stop offset="0.83" stop-color="#B5D2EC" stop-opacity="1"/><stop offset="1" stop-color="#CEE1F2" stop-opacity="1"/></linearGradient><linearGradient x1="1236.13" y1="-710" x2="1236.13" y2="973" gradientUnits="userSpaceOnUse" spreadMethod="reflect" id="fill16"><stop offset="0" stop-color="#F7FAFD" stop-opacity="1"/><stop offset="0.51" stop-color="#F7FAFD" stop-opacity="1"/><stop offset="0.73" stop-color="#B5D2EC" stop-opacity="1"/><stop offset="0.83" stop-color="#B5D2EC" stop-opacity="1"/><stop offset="1" stop-color="#CEE1F2" stop-opacity="1"/></linearGradient><linearGradient x1="1509.6" y1="-1039" x2="1509.6" y2="644" gradientUnits="userSpaceOnUse" spreadMethod="reflect" id="fill17"><stop offset="0" stop-color="#F7FAFD" stop-opacity="1"/><stop offset="0.51" stop-color="#F7FAFD" stop-opacity="1"/><stop offset="0.73" stop-color="#B5D2EC" stop-opacity="1"/><stop offset="0.83" stop-color="#B5D2EC" stop-opacity="1"/><stop offset="1" stop-color="#CEE1F2" stop-opacity="1"/></linearGradient><linearGradient x1="1553.5" y1="61.5" x2="1553.5" y2="1744.5" gradientUnits="userSpaceOnUse" spreadMethod="reflect" id="fill18"><stop offset="0" stop-color="#F7FAFD" stop-opacity="1"/><stop offset="0.51" stop-color="#F7FAFD" stop-opacity="1"/><stop offset="0.73" stop-color="#B5D2EC" stop-opacity="1"/><stop offset="0.83" stop-color="#B5D2EC" stop-opacity="1"/><stop offset="1" stop-color="#CEE1F2" stop-opacity="1"/></linearGradient><linearGradient x1="1553.5" y1="61.5001" x2="1553.5" y2="1744.5" gradientUnits="userSpaceOnUse" spreadMethod="reflect" id="fill19"><stop offset="0" stop-color="#F7FAFD" stop-opacity="1"/><stop offset="0.51" stop-color="#F7FAFD" stop-opacity="1"/><stop offset="0.73" stop-color="#B5D2EC" stop-opacity="1"/><stop offset="0.83" stop-color="#B5D2EC" stop-opacity="1"/><stop offset="1" stop-color="#CEE1F2" stop-opacity="1"/></linearGradient><linearGradient x1="1553.5" y1="61.5" x2="1553.5" y2="1744.5" gradientUnits="userSpaceOnUse" spreadMethod="reflect" id="fill20"><stop offset="0" stop-color="#F7FAFD" stop-opacity="1"/><stop offset="0.51" stop-color="#F7FAFD" stop-opacity="1"/><stop offset="0.73" stop-color="#B5D2EC" stop-opacity="1"/><stop offset="0.83" stop-color="#B5D2EC" stop-opacity="1"/><stop offset="1" stop-color="#CEE1F2" stop-opacity="1"/></linearGradient><linearGradient x1="1553.5" y1="61.5001" x2="1553.5" y2="1744.5" gradientUnits="userSpaceOnUse" spreadMethod="reflect" id="fill21"><stop offset="0" stop-color="#F7FAFD" stop-opacity="1"/><stop offset="0.51" stop-color="#F7FAFD" stop-opacity="1"/><stop offset="0.73" stop-color="#B5D2EC" stop-opacity="1"/><stop offset="0.83" stop-color="#B5D2EC" stop-opacity="1"/><stop offset="1" stop-color="#CEE1F2" stop-opacity="1"/></linearGradient><linearGradient x1="1553.5" y1="61.5" x2="1553.5" y2="1744.5" gradientUnits="userSpaceOnUse" spreadMethod="reflect" id="fill22"><stop offset="0" stop-color="#F7FAFD" stop-opacity="1"/><stop offset="0.51" stop-color="#F7FAFD" stop-opacity="1"/><stop offset="0.73" stop-color="#B5D2EC" stop-opacity="1"/><stop offset="0.83" stop-color="#B5D2EC" stop-opacity="1"/><stop offset="1" stop-color="#CEE1F2" stop-opacity="1"/></linearGradient><linearGradient x1="1553.5" y1="61.5" x2="1553.5" y2="1744.5" gradientUnits="userSpaceOnUse" spreadMethod="reflect" id="fill23"><stop offset="0" stop-color="#F7FAFD" stop-opacity="1"/><stop offset="0.51" stop-color="#F7FAFD" stop-opacity="1"/><stop offset="0.73" stop-color="#B5D2EC" stop-opacity="1"/><stop offset="0.83" stop-color="#B5D2EC" stop-opacity="1"/><stop offset="1" stop-color="#CEE1F2" stop-opacity="1"/></linearGradient></defs><g clip-path="url(#clip0)" transform="translate(-36 -59)"><path d="M43.5002 128.729C150.538 127.879 257.576 127.03 345.487 145.72 433.399 164.41 513.929 204.621 570.971 240.868 628.013 277.115 634.053 340.547 687.74 363.202 741.427 385.856 846.115 405.679 893.091 376.795 940.067 347.91 918.592 239.169 969.595 189.896 1020.6 140.623 1111.19 98.1457 1199.1 81.1549 1287.02 64.1641 1410.5 56.8014 1497.07 87.9511 1583.64 119.101 1690.34 197.825 1718.52 268.053 1746.71 338.282 1680.27 453.253 1666.18 509.323 1652.09 565.392 1618.53 548.968 1633.97 604.471 1649.4 659.974 1712.48 808.927 1758.79 842.342 1805.09 875.757 1862.81 816.29 1911.8 804.962 1960.78 793.635 2003.73 769.848 2052.72 774.379 2101.71 778.91 2166.81 811.192 2205.73 832.148 2244.65 853.103 2235.26 905.774 2286.26 900.111 2337.26 894.447 2427.86 819.688 2511.74 798.166 2595.63 776.645 2709.04 754.556 2789.57 770.981 2870.1 787.405 2949.29 841.776 2994.92 896.713 3040.56 951.65 3061.36 1009.42 3063.37 1100.6 3065.39 1191.79 3043.24 1348.1 3007 1443.82 2970.76 1539.53 2919.76 1625.62 2845.94 1674.89 2772.12 1724.16 2660.05 1728.69 2564.09 1739.46 2468.12 1750.22 2368.8 1740.59 2270.15 1739.46 2171.5 1738.32 1972.19 1732.66 1972.19 1732.66L1584.98 1723.78" stroke="#000000" stroke-width="6.875" stroke-linecap="butt" stroke-linejoin="miter" stroke-miterlimit="8" stroke-opacity="1" fill="url(#fill1)" fill-rule="evenodd"/><path d="M79.4999 377.38C188.548 367.76 297.596 358.14 381.48 390.961 465.363 423.783 500.258 539.224 582.799 574.31 665.34 609.395 788.817 612.224 876.727 601.472 964.636 590.72 1057.24 556.201 1110.26 509.798 1163.27 463.395 1151.19 358.705 1194.81 323.054 1238.43 287.403 1326.34 292.496 1371.97 295.892 1417.61 299.287 1468.61 296.457 1468.61 343.426 1468.61 390.395 1371.3 484.333 1371.97 577.705 1372.64 671.077 1421.63 822.736 1472.63 903.658 1523.63 984.581 1588.73 1041.17 1677.98 1063.24 1767.23 1085.31 1918.89 1025.89 2008.14 1036.08 2097.4 1046.26 2133.63 1115.87 2213.49 1124.36 2293.35 1132.84 2412.13 1107.38 2487.29 1087.01 2562.45 1066.63 2617.47 1010.05 2664.45 1002.12 2711.42 994.201 2755.04 982.317 2769.13 1039.47 2783.23 1096.63 2767.12 1267.53 2749 1345.05 2730.88 1422.58 2749 1480.87 2660.42 1504.63 2571.84 1528.4 2351.06 1491.05 2217.52 1487.66 2083.98 1484.26 1966.54 1483.13 1859.17 1484.26 1751.8 1485.39 1573.29 1494.45 1573.29 1494.45L1573.29 1494.45" stroke="#000000" stroke-width="6.875" stroke-linecap="butt" stroke-linejoin="miter" stroke-miterlimit="8" stroke-opacity="1" fill="url(#fill2)" fill-rule="evenodd"/><path d="M43.5002 129.5 79.7424 377.475" stroke="#000000" stroke-width="6.875" stroke-linecap="butt" stroke-linejoin="miter" stroke-miterlimit="8" stroke-opacity="1" fill="url(#fill3)" fill-rule="evenodd"/><path d="M345.5 146.5 381.742 391.078" stroke="#000000" stroke-width="6.875" stroke-linecap="butt" stroke-linejoin="miter" stroke-miterlimit="8" stroke-opacity="1" fill="url(#fill4)" fill-rule="evenodd"/><path d="M570.5 241.5 582.58 574.397" stroke="#000000" stroke-width="6.875" stroke-linecap="butt" stroke-linejoin="miter" stroke-miterlimit="8" stroke-opacity="1" fill="url(#fill5)" fill-rule="evenodd"/><path d="M0 0 16.1077 224.196" stroke="#000000" stroke-width="6.875" stroke-linecap="butt" stroke-linejoin="miter" stroke-miterlimit="8" stroke-opacity="1" fill="url(#fill6)" fill-rule="evenodd" transform="matrix(-1 0 0 1 892.608 377.5)"/><path d="M969.5 190.5 1195.01 322.98" stroke="#000000" stroke-width="6.875" stroke-linecap="butt" stroke-linejoin="miter" stroke-miterlimit="8" stroke-opacity="1" fill="url(#fill7)" fill-rule="evenodd"/><path d="M1333.5 61.5 1371.69 295.452" stroke="#000000" stroke-width="6.875" stroke-linecap="butt" stroke-linejoin="miter" stroke-miterlimit="8" stroke-opacity="1" fill="url(#fill8)" fill-rule="evenodd"/><path d="M0 0 249.669 74.7322" stroke="#000000" stroke-width="6.875" stroke-linecap="butt" stroke-linejoin="miter" stroke-miterlimit="8" stroke-opacity="1" fill="url(#fill9)" fill-rule="evenodd" transform="matrix(-1 0 0 1 1718.17 268.5)"/><path d="M0 0 293.965 67.938" stroke="#000000" stroke-width="6.875" stroke-linecap="butt" stroke-linejoin="miter" stroke-miterlimit="8" stroke-opacity="1" fill="url(#fill10)" fill-rule="evenodd" transform="matrix(-1 0 0 1 1666.47 509.5)"/><path d="M0 0 205.373 193.093" stroke="#000000" stroke-width="6.875" stroke-linecap="butt" stroke-linejoin="miter" stroke-miterlimit="8" stroke-opacity="1" fill="url(#fill11)" fill-rule="evenodd" transform="matrix(-1 0 0 1 1677.87 710.5)"/><path d="M0 0 80.5382 220.799" stroke="#000000" stroke-width="6.875" stroke-linecap="butt" stroke-linejoin="miter" stroke-miterlimit="8" stroke-opacity="1" fill="url(#fill12)" fill-rule="evenodd" transform="matrix(-1 0 0 1 1759.04 842.5)"/><path d="M0 0 44.2963 261.563" stroke="#000000" stroke-width="6.875" stroke-linecap="butt" stroke-linejoin="miter" stroke-miterlimit="8" stroke-opacity="1" fill="url(#fill13)" fill-rule="evenodd" transform="matrix(-1 0 0 1 2052.8 774.5)"/><path d="M0 0 72.4845 224.196" stroke="#000000" stroke-width="6.875" stroke-linecap="butt" stroke-linejoin="miter" stroke-miterlimit="8" stroke-opacity="1" fill="url(#fill14)" fill-rule="evenodd" transform="matrix(-1 0 0 1 2285.98 900.5)"/><path d="M0 0 24.1614 288.737" stroke="#000000" stroke-width="6.875" stroke-linecap="butt" stroke-linejoin="miter" stroke-miterlimit="8" stroke-opacity="1" fill="url(#fill15)" fill-rule="evenodd" transform="matrix(-1 0 0 1 2511.66 798.5)"/><path d="M0 0 20.1345 268.356" stroke="#000000" stroke-width="6.875" stroke-linecap="butt" stroke-linejoin="miter" stroke-miterlimit="8" stroke-opacity="1" fill="url(#fill16)" fill-rule="evenodd" transform="matrix(-1 0 0 1 2789.63 771.5)"/><path d="M0 0 288.599 63.9238" stroke="#000000" stroke-width="6.875" stroke-linecap="butt" stroke-linejoin="miter" stroke-miterlimit="8" stroke-opacity="1" fill="url(#fill17)" fill-rule="evenodd" transform="matrix(-1 0 0 1 3063.1 1100.5)"/><path d="M2749.5 1345.5 3007.22 1444.01" stroke="#000000" stroke-width="6.875" stroke-linecap="butt" stroke-linejoin="miter" stroke-miterlimit="8" stroke-opacity="1" fill="url(#fill18)" fill-rule="evenodd"/><path d="M2845.74 1674.35 2660.5 1504.5" stroke="#000000" stroke-width="6.875" stroke-linecap="butt" stroke-linejoin="miter" stroke-miterlimit="8" stroke-opacity="1" fill="url(#fill19)" fill-rule="evenodd"/><path d="M2564.33 1738.89 2422.5 1504.5" stroke="#000000" stroke-width="6.875" stroke-linecap="butt" stroke-linejoin="miter" stroke-miterlimit="8" stroke-opacity="1" fill="url(#fill20)" fill-rule="evenodd"/><path d="M2269.85 1738.87 2217.5 1487.5" stroke="#000000" stroke-width="6.875" stroke-linecap="butt" stroke-linejoin="miter" stroke-miterlimit="8" stroke-opacity="1" fill="url(#fill21)" fill-rule="evenodd"/><path d="M1971.83 1732.08 1808.5 1487.5" stroke="#000000" stroke-width="6.875" stroke-linecap="butt" stroke-linejoin="miter" stroke-miterlimit="8" stroke-opacity="1" fill="url(#fill22)" fill-rule="evenodd"/><path d="M1589.63 1725.28 1569.5 1487.5" stroke="#000000" stroke-width="6.875" stroke-linecap="butt" stroke-linejoin="miter" stroke-miterlimit="8" stroke-opacity="1" fill="url(#fill23)" fill-rule="evenodd"/><path d="M111.5 252.5C111.5 192.853 158.51 144.5 216.5 144.5 274.49 144.5 321.5 192.853 321.5 252.5 321.5 312.147 274.49 360.5 216.5 360.5 158.51 360.5 111.5 312.147 111.5 252.5Z" fill="#FFFF00" fill-rule="evenodd" fill-opacity="1"/><path d="M171.924 220.2C171.924 213.987 176.82 208.95 182.861 208.95 188.902 208.95 193.799 213.987 193.799 220.2 193.799 226.413 188.902 231.45 182.861 231.45 176.82 231.45 171.924 226.413 171.924 220.2M239.201 220.2C239.201 213.987 244.098 208.95 250.139 208.95 256.179 208.95 261.076 213.987 261.076 220.2 261.076 226.413 256.179 231.45 250.139 231.45 244.098 231.45 239.201 226.413 239.201 220.2" stroke="#000000" stroke-width="4.58333" stroke-linecap="butt" stroke-linejoin="miter" stroke-miterlimit="8" stroke-opacity="1" fill="#CDCD00" fill-rule="evenodd" fill-opacity="1"/><path d="M159.589 299.6C197.53 326.401 235.426 326.401 273.278 299.6" stroke="#000000" stroke-width="4.58333" stroke-linecap="butt" stroke-linejoin="miter" stroke-miterlimit="8" stroke-opacity="1" fill="none" fill-rule="evenodd"/><path d="M111.5 252.5C111.5 192.853 158.51 144.5 216.5 144.5 274.49 144.5 321.5 192.853 321.5 252.5 321.5 312.147 274.49 360.5 216.5 360.5 158.51 360.5 111.5 312.147 111.5 252.5Z" stroke="#000000" stroke-width="4.58333" stroke-linecap="butt" stroke-linejoin="miter" stroke-miterlimit="8" stroke-opacity="1" fill="none" fill-rule="evenodd"/><path d="M2047.77 900.905C2071.68 846.172 2134.2 820.647 2187.42 843.894 2240.64 867.141 2264.39 930.357 2240.48 985.09 2216.57 1039.82 2154.05 1065.35 2100.83 1042.1 2047.62 1018.85 2023.86 955.638 2047.77 900.905Z" fill="#FFFF00" fill-rule="evenodd" fill-opacity="1"/><path d="M2116.17 895.488C2118.66 889.787 2125.17 887.128 2130.71 889.55 2136.26 891.971 2138.73 898.556 2136.24 904.257 2133.75 909.959 2127.24 912.618 2121.69 910.196 2116.15 907.774 2113.68 901.19 2116.17 895.488M2177.91 922.459C2180.4 916.757 2186.91 914.098 2192.45 916.52 2198 918.942 2200.47 925.526 2197.98 931.228 2195.49 936.929 2188.98 939.588 2183.43 937.166 2177.89 934.745 2175.42 928.16 2177.91 922.459" stroke="#000000" stroke-width="4.58333" stroke-linecap="butt" stroke-linejoin="miter" stroke-miterlimit="8" stroke-opacity="1" fill="#CDCD00" fill-rule="evenodd" fill-opacity="1"/><path d="M2073.02 963.402C2097.09 1003.21 2131.87 1018.4 2177.35 1008.98" stroke="#000000" stroke-width="4.58333" stroke-linecap="butt" stroke-linejoin="miter" stroke-miterlimit="8" stroke-opacity="1" fill="none" fill-rule="evenodd"/><path d="M2047.77 900.905C2071.68 846.172 2134.2 820.647 2187.42 843.894 2240.64 867.141 2264.39 930.357 2240.48 985.09 2216.57 1039.82 2154.05 1065.35 2100.83 1042.1 2047.62 1018.85 2023.86 955.638 2047.77 900.905Z" stroke="#000000" stroke-width="4.58333" stroke-linecap="butt" stroke-linejoin="miter" stroke-miterlimit="8" stroke-opacity="1" fill="none" fill-rule="evenodd"/><path d="M386.658 295.935C401.708 246.842 452.323 218.82 499.71 233.347 547.096 247.874 573.31 299.449 558.259 348.542 543.209 397.636 492.594 425.658 445.207 411.131 397.821 396.604 371.607 345.029 386.658 295.935Z" fill="#9DC3E6" fill-rule="evenodd" fill-opacity="1"/><path d="M444.183 284.487C445.751 279.373 451.023 276.454 455.959 277.967 460.895 279.48 463.626 284.853 462.058 289.967 460.49 295.08 455.218 297.999 450.282 296.486 445.346 294.973 442.615 289.601 444.183 284.487M499.159 301.34C500.727 296.226 505.999 293.307 510.935 294.821 515.871 296.334 518.602 301.706 517.034 306.82 515.466 311.934 510.194 314.853 505.258 313.34 500.322 311.827 497.591 306.454 499.159 301.34" stroke="#000000" stroke-width="4.58333" stroke-linecap="butt" stroke-linejoin="miter" stroke-miterlimit="8" stroke-opacity="1" fill="#7E9DB9" fill-rule="evenodd" fill-opacity="1"/><path d="M408.997 363.293C446.763 350.738 477.73 360.232 501.898 391.773" stroke="#000000" stroke-width="4.58333" stroke-linecap="butt" stroke-linejoin="miter" stroke-miterlimit="8" stroke-opacity="1" fill="none" fill-rule="evenodd"/><path d="M386.658 295.935C401.708 246.842 452.323 218.82 499.71 233.347 547.096 247.874 573.31 299.449 558.259 348.542 543.209 397.636 492.594 425.658 445.207 411.131 397.821 396.604 371.607 345.029 386.658 295.935Z" stroke="#000000" stroke-width="4.58333" stroke-linecap="butt" stroke-linejoin="miter" stroke-miterlimit="8" stroke-opacity="1" fill="none" fill-rule="evenodd"/><path d="M500.118 337.434C498.026 334.018 499.602 329.245 503.638 326.773 506.074 325.282 508.509 323.79 510.945 322.298 512.208 324.36 513.47 326.422 514.733 328.484 516.825 331.9 515.249 336.672 511.213 339.144 507.178 341.615 502.21 340.85 500.118 337.434Z" stroke="#000000" stroke-width="4.58333" stroke-linecap="butt" stroke-linejoin="miter" stroke-miterlimit="8" stroke-opacity="1" fill="#0070C0" fill-rule="evenodd" fill-opacity="1"/><path d="M2268.5 992.5C2268.5 932.853 2315.51 884.5 2373.5 884.5 2431.49 884.5 2478.5 932.853 2478.5 992.5 2478.5 1052.15 2431.49 1100.5 2373.5 1100.5 2315.51 1100.5 2268.5 1052.15 2268.5 992.5Z" fill="#9DC3E6" fill-rule="evenodd" fill-opacity="1"/><path d="M2328.92 960.2C2328.92 953.987 2333.82 948.95 2339.86 948.95 2345.9 948.95 2350.8 953.987 2350.8 960.2 2350.8 966.413 2345.9 971.45 2339.86 971.45 2333.82 971.45 2328.92 966.413 2328.92 960.2M2396.2 960.2C2396.2 953.987 2401.1 948.95 2407.14 948.95 2413.18 948.95 2418.08 953.987 2418.08 960.2 2418.08 966.413 2413.18 971.45 2407.14 971.45 2401.1 971.45 2396.2 966.413 2396.2 960.2" stroke="#000000" stroke-width="4.58333" stroke-linecap="butt" stroke-linejoin="miter" stroke-miterlimit="8" stroke-opacity="1" fill="#7E9DB9" fill-rule="evenodd" fill-opacity="1"/><path d="M2316.59 1059.7C2354.53 1032.9 2392.43 1032.9 2430.28 1059.7" stroke="#000000" stroke-width="4.58333" stroke-linecap="butt" stroke-linejoin="miter" stroke-miterlimit="8" stroke-opacity="1" fill="none" fill-rule="evenodd"/><path d="M2268.5 992.5C2268.5 932.853 2315.51 884.5 2373.5 884.5 2431.49 884.5 2478.5 932.853 2478.5 992.5 2478.5 1052.15 2431.49 1100.5 2373.5 1100.5 2315.51 1100.5 2268.5 1052.15 2268.5 992.5Z" stroke="#000000" stroke-width="4.58333" stroke-linecap="butt" stroke-linejoin="miter" stroke-miterlimit="8" stroke-opacity="1" fill="none" fill-rule="evenodd"/><path d="M2409.28 999.453C2405.76 996.345 2405.87 990.482 2409.51 986.357 2411.71 983.868 2413.91 981.379 2416.11 978.89 2418.24 980.766 2420.36 982.642 2422.48 984.518 2426 987.626 2425.89 993.489 2422.25 997.614 2418.6 1001.74 2412.8 1002.56 2409.28 999.453Z" stroke="#000000" stroke-width="4.58333" stroke-linecap="butt" stroke-linejoin="miter" stroke-miterlimit="8" stroke-opacity="1" fill="#0070C0" fill-rule="evenodd" fill-opacity="1"/><path d="M922.098 455.602C895.177 402.285 915.377 337.845 967.216 311.67 1019.05 285.495 1082.9 307.497 1109.82 360.814 1136.74 414.13 1116.54 478.571 1064.71 504.746 1012.87 530.921 949.019 508.918 922.098 455.602Z" fill="#FF0013" fill-rule="evenodd" fill-opacity="1"/><path d="M961.534 399.456C958.73 393.902 960.834 387.19 966.234 384.463 971.634 381.737 978.285 384.029 981.089 389.582 983.893 395.136 981.789 401.849 976.389 404.575 970.989 407.302 964.339 405.01 961.534 399.456M1021.68 369.089C1018.87 363.535 1020.98 356.823 1026.38 354.096 1031.78 351.37 1038.43 353.661 1041.23 359.215 1044.03 364.769 1041.93 371.482 1036.53 374.208 1031.13 376.935 1024.48 374.643 1021.68 369.089" stroke="#000000" stroke-width="4.58333" stroke-linecap="butt" stroke-linejoin="miter" stroke-miterlimit="8" stroke-opacity="1" fill="#CD000F" fill-rule="evenodd" fill-opacity="1"/><path d="M995.417 493.964C1017.24 452.882 1051.11 435.777 1097.05 442.648" stroke="#000000" stroke-width="4.58333" stroke-linecap="butt" stroke-linejoin="miter" stroke-miterlimit="8" stroke-opacity="1" fill="none" fill-rule="evenodd"/><path d="M922.098 455.602C895.177 402.285 915.377 337.845 967.216 311.67 1019.05 285.495 1082.9 307.497 1109.82 360.814 1136.74 414.13 1116.54 478.571 1064.71 504.746 1012.87 530.921 949.019 508.918 922.098 455.602Z" stroke="#000000" stroke-width="4.58333" stroke-linecap="butt" stroke-linejoin="miter" stroke-miterlimit="8" stroke-opacity="1" fill="none" fill-rule="evenodd"/><path d="M937.591 385.961C959.195 379.351 978.699 380.497 981.154 388.52" stroke="#000000" stroke-width="6.875" stroke-linecap="butt" stroke-linejoin="miter" stroke-miterlimit="8" stroke-opacity="1" fill="none" fill-rule="evenodd"/><path d="M992.942 501.374C982.382 473.833 998.82 441.921 1029.66 430.098 1060.49 418.274 1094.05 431.016 1104.61 458.558 1070.92 439.884 1025.04 451.075 1002.12 483.555 998.189 489.128 995.099 495.127 992.942 501.374Z" stroke="#000000" stroke-width="4.58333" stroke-linecap="butt" stroke-linejoin="miter" stroke-miterlimit="8" stroke-opacity="1" fill="#C00000" fill-rule="evenodd" fill-opacity="1"/><path d="M40.7798 0C63.3018 0 81.5595 6.80225 81.5595 15.1933" stroke="#000000" stroke-width="6.875" stroke-linecap="butt" stroke-linejoin="miter" stroke-miterlimit="8" stroke-opacity="1" fill="none" fill-rule="evenodd" transform="matrix(-0.89266 0.450732 0.450732 0.89266 1086.85 315.314)"/><path d="M2803.5 1010.5C2803.5 950.853 2850.51 902.5 2908.5 902.5 2966.49 902.5 3013.5 950.853 3013.5 1010.5 3013.5 1070.15 2966.49 1118.5 2908.5 1118.5 2850.51 1118.5 2803.5 1070.15 2803.5 1010.5Z" fill="#FF0013" fill-rule="evenodd" fill-opacity="1"/><path d="M2863.92 978.2C2863.92 971.987 2868.82 966.95 2874.86 966.95 2880.9 966.95 2885.8 971.987 2885.8 978.2 2885.8 984.413 2880.9 989.45 2874.86 989.45 2868.82 989.45 2863.92 984.413 2863.92 978.2M2931.2 978.2C2931.2 971.987 2936.1 966.95 2942.14 966.95 2948.18 966.95 2953.08 971.987 2953.08 978.2 2953.08 984.413 2948.18 989.45 2942.14 989.45 2936.1 989.45 2931.2 984.413 2931.2 978.2" stroke="#000000" stroke-width="4.58333" stroke-linecap="butt" stroke-linejoin="miter" stroke-miterlimit="8" stroke-opacity="1" fill="#CD000F" fill-rule="evenodd" fill-opacity="1"/><path d="M2851.59 1077.7C2889.53 1050.9 2927.43 1050.9 2965.28 1077.7" stroke="#000000" stroke-width="4.58333" stroke-linecap="butt" stroke-linejoin="miter" stroke-miterlimit="8" stroke-opacity="1" fill="none" fill-rule="evenodd"/><path d="M2803.5 1010.5C2803.5 950.853 2850.51 902.5 2908.5 902.5 2966.49 902.5 3013.5 950.853 3013.5 1010.5 3013.5 1070.15 2966.49 1118.5 2908.5 1118.5 2850.51 1118.5 2803.5 1070.15 2803.5 1010.5Z" stroke="#000000" stroke-width="4.58333" stroke-linecap="butt" stroke-linejoin="miter" stroke-miterlimit="8" stroke-opacity="1" fill="none" fill-rule="evenodd"/><path d="M2847.78 954.622C2870.05 958.459 2886.94 968.273 2885.51 976.543" stroke="#000000" stroke-width="6.875" stroke-linecap="butt" stroke-linejoin="miter" stroke-miterlimit="8" stroke-opacity="1" fill="none" fill-rule="evenodd"/><path d="M2845.17 1082.6C2848.16 1053.25 2877.21 1032.17 2910.07 1035.52 2942.93 1038.86 2967.14 1065.36 2964.15 1094.71 2942.5 1062.85 2896.49 1052.16 2861.4 1070.83 2855.37 1074.03 2849.91 1077.99 2845.17 1082.6Z" stroke="#000000" stroke-width="4.58333" stroke-linecap="butt" stroke-linejoin="miter" stroke-miterlimit="8" stroke-opacity="1" fill="#C00000" fill-rule="evenodd" fill-opacity="1"/><path d="M41.0001 0C63.6438 0 82.0002 6.71579 82.0002 15.0001" stroke="#000000" stroke-width="6.875" stroke-linecap="butt" stroke-linejoin="miter" stroke-miterlimit="8" stroke-opacity="1" fill="none" fill-rule="evenodd" transform="matrix(-1 0 0 1 3013.5 959.5)"/><path d="M1124.41 250.985C1095.32 201.553 1113.08 137.147 1164.08 107.13 1215.08 77.1125 1280.01 92.8512 1309.1 142.283 1338.2 191.715 1320.44 256.121 1269.44 286.138 1218.44 316.155 1153.51 300.416 1124.41 250.985Z" fill="#FFFF00" fill-rule="evenodd" fill-opacity="1"/><path d="M1161.8 192.939C1158.77 187.79 1160.62 181.081 1165.93 177.954 1171.24 174.828 1178.01 176.467 1181.04 181.616 1184.07 186.765 1182.22 193.474 1176.91 196.601 1171.59 199.728 1164.83 198.088 1161.8 192.939M1220.97 158.115C1217.94 152.965 1219.79 146.256 1225.1 143.13 1230.41 140.003 1237.17 141.642 1240.21 146.791 1243.24 151.941 1241.39 158.65 1236.07 161.776 1230.76 164.903 1224 163.264 1220.97 158.115" stroke="#000000" stroke-width="4.58333" stroke-linecap="butt" stroke-linejoin="miter" stroke-miterlimit="8" stroke-opacity="1" fill="#CDCD00" fill-rule="evenodd" fill-opacity="1"/><path d="M1189.68 265.126C1236.12 267.698 1269.45 248.082 1289.67 206.278" stroke="#000000" stroke-width="4.58333" stroke-linecap="butt" stroke-linejoin="miter" stroke-miterlimit="8" stroke-opacity="1" fill="none" fill-rule="evenodd"/><path d="M1124.41 250.985C1095.32 201.553 1113.08 137.147 1164.08 107.13 1215.08 77.1125 1280.01 92.8512 1309.1 142.283 1338.2 191.715 1320.44 256.121 1269.44 286.138 1218.44 316.155 1153.51 300.416 1124.41 250.985Z" stroke="#000000" stroke-width="4.58333" stroke-linecap="butt" stroke-linejoin="miter" stroke-miterlimit="8" stroke-opacity="1" fill="none" fill-rule="evenodd"/><path d="M1161.64 183.117C1155.97 150.712 1210.4 154.419 1181.73 217.25 1112.88 211.815 1136.06 162.426 1161.64 183.117Z" stroke="#000000" stroke-width="4.58333" stroke-linecap="butt" stroke-linejoin="miter" stroke-miterlimit="8" stroke-opacity="1" fill="#FF0000" fill-rule="evenodd" fill-opacity="1"/><path d="M1230.1 142.822C1224.43 110.417 1278.86 114.124 1250.19 176.955 1181.34 171.52 1204.53 122.131 1230.1 142.822Z" stroke="#000000" stroke-width="4.58333" stroke-linecap="butt" stroke-linejoin="miter" stroke-miterlimit="8" stroke-opacity="1" fill="#FF0000" fill-rule="evenodd" fill-opacity="1"/><path d="M2814.5 1279C2814.5 1219.08 2861.51 1170.5 2919.5 1170.5 2977.49 1170.5 3024.5 1219.08 3024.5 1279 3024.5 1338.92 2977.49 1387.5 2919.5 1387.5 2861.51 1387.5 2814.5 1338.92 2814.5 1279Z" fill="#FFFF00" fill-rule="evenodd" fill-opacity="1"/><path d="M2874.92 1246.55C2874.92 1240.31 2879.82 1235.25 2885.86 1235.25 2891.9 1235.25 2896.8 1240.31 2896.8 1246.55 2896.8 1252.79 2891.9 1257.85 2885.86 1257.85 2879.82 1257.85 2874.92 1252.79 2874.92 1246.55M2942.2 1246.55C2942.2 1240.31 2947.1 1235.25 2953.14 1235.25 2959.18 1235.25 2964.08 1240.31 2964.08 1246.55 2964.08 1252.79 2959.18 1257.85 2953.14 1257.85 2947.1 1257.85 2942.2 1252.79 2942.2 1246.55" stroke="#000000" stroke-width="4.58333" stroke-linecap="butt" stroke-linejoin="miter" stroke-miterlimit="8" stroke-opacity="1" fill="#CDCD00" fill-rule="evenodd" fill-opacity="1"/><path d="M2862.59 1326.32C2900.53 1353.24 2938.43 1353.24 2976.28 1326.32" stroke="#000000" stroke-width="4.58333" stroke-linecap="butt" stroke-linejoin="miter" stroke-miterlimit="8" stroke-opacity="1" fill="none" fill-rule="evenodd"/><path d="M2814.5 1279C2814.5 1219.08 2861.51 1170.5 2919.5 1170.5 2977.49 1170.5 3024.5 1219.08 3024.5 1279 3024.5 1338.92 2977.49 1387.5 2919.5 1387.5 2861.51 1387.5 2814.5 1338.92 2814.5 1279Z" stroke="#000000" stroke-width="4.58333" stroke-linecap="butt" stroke-linejoin="miter" stroke-miterlimit="8" stroke-opacity="1" fill="none" fill-rule="evenodd"/><path d="M2879.5 1237.25C2890.75 1205.17 2934.62 1237.25 2879.5 1278.5 2824.38 1237.25 2868.25 1205.17 2879.5 1237.25Z" stroke="#000000" stroke-width="4.58333" stroke-linecap="butt" stroke-linejoin="miter" stroke-miterlimit="8" stroke-opacity="1" fill="#FF0000" fill-rule="evenodd" fill-opacity="1"/><path d="M2957.5 1237.25C2968.75 1205.17 3012.62 1237.25 2957.5 1278.5 2902.38 1237.25 2946.25 1205.17 2957.5 1237.25Z" stroke="#000000" stroke-width="4.58333" stroke-linecap="butt" stroke-linejoin="miter" stroke-miterlimit="8" stroke-opacity="1" fill="#FF0000" fill-rule="evenodd" fill-opacity="1"/><path d="M1402.5 212.5C1402.5 153.406 1451.75 105.5 1512.5 105.5 1573.25 105.5 1622.5 153.406 1622.5 212.5 1622.5 271.594 1573.25 319.5 1512.5 319.5 1451.75 319.5 1402.5 271.594 1402.5 212.5Z" stroke="#000000" stroke-width="4.58333" stroke-linecap="butt" stroke-linejoin="miter" stroke-miterlimit="8" stroke-opacity="1" fill="#FFE699" fill-rule="evenodd" fill-opacity="1"/><path d="M1487.5 186.5C1487.5 195.889 1478.1 203.5 1466.5 203.5 1454.9 203.5 1445.5 195.889 1445.5 186.5 1454.2 195.889 1470.65 197.792 1482.25 190.75 1484.24 189.542 1486.01 188.111 1487.5 186.5Z" stroke="#000000" stroke-width="4.58333" stroke-linecap="butt" stroke-linejoin="miter" stroke-miterlimit="8" stroke-opacity="1" fill="#000000" fill-rule="evenodd" fill-opacity="1"/><path d="M1560.5 186.5C1560.5 195.889 1551.1 203.5 1539.5 203.5 1527.9 203.5 1518.5 195.889 1518.5 186.5 1527.2 195.889 1543.65 197.792 1555.25 190.75 1557.24 189.542 1559.01 188.111 1560.5 186.5Z" stroke="#000000" stroke-width="4.58333" stroke-linecap="butt" stroke-linejoin="miter" stroke-miterlimit="8" stroke-opacity="1" fill="#000000" fill-rule="evenodd" fill-opacity="1"/><path d="M1490.5 256.5C1490.5 246.007 1495.42 237.5 1501.5 237.5 1507.58 237.5 1512.5 246.007 1512.5 256.5 1512.5 266.993 1507.58 275.5 1501.5 275.5 1495.42 275.5 1490.5 266.993 1490.5 256.5Z" stroke="#000000" stroke-width="4.58333" stroke-linecap="butt" stroke-linejoin="miter" stroke-miterlimit="8" stroke-opacity="1" fill="#F8CBAD" fill-rule="evenodd" fill-opacity="1"/><text fill="#000000" fill-opacity="1" font-family="Arial,Arial_MSFontService,sans-serif" font-style="normal" font-variant="normal" font-weight="400" font-stretch="normal" font-size="64" text-anchor="start" direction="ltr" writing-mode="lr-tb" unicode-bidi="normal" text-decoration="none" transform="matrix(1 0 0 1 1444.42 208)">Z<tspan fill="#000000" fill-opacity="1" font-family="Arial,Arial_MSFontService,sans-serif" font-style="normal" font-variant="normal" font-weight="400" font-stretch="normal" font-size="55" text-anchor="start" direction="ltr" writing-mode="lr-tb" unicode-bidi="normal" text-decoration="none" x="-23.5699" y="-38">Z</tspan></text><path d="M2740.5 1519.5C2740.5 1459.85 2787.51 1411.5 2845.5 1411.5 2903.49 1411.5 2950.5 1459.85 2950.5 1519.5 2950.5 1579.15 2903.49 1627.5 2845.5 1627.5 2787.51 1627.5 2740.5 1579.15 2740.5 1519.5Z" stroke="#000000" stroke-width="4.58333" stroke-linecap="butt" stroke-linejoin="miter" stroke-miterlimit="8" stroke-opacity="1" fill="#FFE699" fill-rule="evenodd" fill-opacity="1"/><path d="M2822.5 1493.5C2822.5 1502.34 2813.55 1509.5 2802.5 1509.5 2791.45 1509.5 2782.5 1502.34 2782.5 1493.5 2790.78 1502.34 2806.45 1504.13 2817.5 1497.5 2819.4 1496.36 2821.08 1495.02 2822.5 1493.5Z" stroke="#000000" stroke-width="4.58333" stroke-linecap="butt" stroke-linejoin="miter" stroke-miterlimit="8" stroke-opacity="1" fill="#000000" fill-rule="evenodd" fill-opacity="1"/><path d="M2891.5 1493.5C2891.5 1502.34 2882.55 1509.5 2871.5 1509.5 2860.45 1509.5 2851.5 1502.34 2851.5 1493.5 2859.78 1502.34 2875.45 1504.13 2886.5 1497.5 2888.4 1496.36 2890.08 1495.02 2891.5 1493.5Z" stroke="#000000" stroke-width="4.58333" stroke-linecap="butt" stroke-linejoin="miter" stroke-miterlimit="8" stroke-opacity="1" fill="#000000" fill-rule="evenodd" fill-opacity="1"/><path d="M2825.5 1564C2825.5 1553.23 2829.98 1544.5 2835.5 1544.5 2841.02 1544.5 2845.5 1553.23 2845.5 1564 2845.5 1574.77 2841.02 1583.5 2835.5 1583.5 2829.98 1583.5 2825.5 1574.77 2825.5 1564Z" stroke="#000000" stroke-width="4.58333" stroke-linecap="butt" stroke-linejoin="miter" stroke-miterlimit="8" stroke-opacity="1" fill="#F8CBAD" fill-rule="evenodd" fill-opacity="1"/><text fill="#000000" fill-opacity="1" font-family="Arial,Arial_MSFontService,sans-serif" font-style="normal" font-variant="normal" font-weight="400" font-stretch="normal" font-size="64" text-anchor="start" direction="ltr" writing-mode="lr-tb" unicode-bidi="normal" text-decoration="none" transform="matrix(1 0 0 1 2782.36 1514)">Z<tspan fill="#000000" fill-opacity="1" font-family="Arial,Arial_MSFontService,sans-serif" font-style="normal" font-variant="normal" font-weight="400" font-stretch="normal" font-size="55" text-anchor="start" direction="ltr" writing-mode="lr-tb" unicode-bidi="normal" text-decoration="none" x="-22.4468" y="-38">Z</tspan></text><path d="M623.5 487.5C623.5 430.615 667.6 384.5 722 384.5 776.4 384.5 820.5 430.615 820.5 487.5 820.5 544.385 776.4 590.5 722 590.5 667.6 590.5 623.5 544.385 623.5 487.5Z" fill="#FFFF00" fill-rule="evenodd" fill-opacity="1"/><path d="M680.183 456.695C680.183 450.77 684.777 445.966 690.444 445.966 696.11 445.966 700.704 450.77 700.704 456.695 700.704 462.621 696.11 467.425 690.444 467.425 684.777 467.425 680.183 462.621 680.183 456.695M743.296 456.695C743.296 450.77 747.89 445.966 753.556 445.966 759.223 445.966 763.817 450.77 763.817 456.695 763.817 462.621 759.223 467.425 753.556 467.425 747.89 467.425 743.296 462.621 743.296 456.695" stroke="#000000" stroke-width="4.58333" stroke-linecap="butt" stroke-linejoin="miter" stroke-miterlimit="8" stroke-opacity="1" fill="#CDCD00" fill-rule="evenodd" fill-opacity="1"/><path d="M668.612 551.589C704.204 526.029 739.754 526.029 775.263 551.589" stroke="#000000" stroke-width="4.58333" stroke-linecap="butt" stroke-linejoin="miter" stroke-miterlimit="8" stroke-opacity="1" fill="none" fill-rule="evenodd"/><path d="M623.5 487.5C623.5 430.615 667.6 384.5 722 384.5 776.4 384.5 820.5 430.615 820.5 487.5 820.5 544.385 776.4 590.5 722 590.5 667.6 590.5 623.5 544.385 623.5 487.5Z" stroke="#000000" stroke-width="4.58333" stroke-linecap="butt" stroke-linejoin="miter" stroke-miterlimit="8" stroke-opacity="1" fill="none" fill-rule="evenodd"/><path d="M659.5 482C659.5 475.097 666.216 469.5 674.5 469.5 682.784 469.5 689.5 475.097 689.5 482 689.5 488.904 682.784 494.5 674.5 494.5 666.216 494.5 659.5 488.904 659.5 482Z" stroke="#F4B183" stroke-width="4.58333" stroke-linecap="butt" stroke-linejoin="miter" stroke-miterlimit="8" stroke-opacity="1" fill="#F4B183" fill-rule="evenodd" fill-opacity="1"/><path d="M752.5 487C752.5 480.096 759.216 474.5 767.5 474.5 775.784 474.5 782.5 480.096 782.5 487 782.5 493.904 775.784 499.5 767.5 499.5 759.216 499.5 752.5 493.904 752.5 487Z" stroke="#F4B183" stroke-width="4.58333" stroke-linecap="butt" stroke-linejoin="miter" stroke-miterlimit="8" stroke-opacity="1" fill="#F4B183" fill-rule="evenodd" fill-opacity="1"/><path d="M2534.52 915.269C2524.77 856.344 2563.3 800.885 2620.59 791.397 2677.88 781.909 2732.24 821.986 2742 880.911 2751.75 939.836 2713.22 995.296 2655.93 1004.78 2598.64 1014.27 2544.28 974.194 2534.52 915.269Z" fill="#FFFF00" fill-rule="evenodd" fill-opacity="1"/><path d="M2588.94 873.474C2587.92 867.336 2591.93 861.559 2597.9 860.571 2603.87 859.582 2609.53 863.757 2610.55 869.895 2611.56 876.033 2607.55 881.81 2601.58 882.798 2595.61 883.787 2589.95 879.612 2588.94 873.474M2655.4 862.467C2654.39 856.329 2658.4 850.552 2664.37 849.564 2670.34 848.575 2676 852.75 2677.02 858.888 2678.03 865.026 2674.02 870.803 2668.05 871.791 2662.08 872.78 2656.42 868.605 2655.4 862.467" stroke="#000000" stroke-width="4.58333" stroke-linecap="butt" stroke-linejoin="miter" stroke-miterlimit="8" stroke-opacity="1" fill="#CDCD00" fill-rule="evenodd" fill-opacity="1"/><path d="M2593.03 973.789C2626.13 941.104 2663.57 934.904 2705.35 955.188" stroke="#000000" stroke-width="4.58333" stroke-linecap="butt" stroke-linejoin="miter" stroke-miterlimit="8" stroke-opacity="1" fill="none" fill-rule="evenodd"/><path d="M2534.52 915.269C2524.77 856.344 2563.3 800.885 2620.59 791.397 2677.88 781.909 2732.24 821.986 2742 880.911 2751.75 939.836 2713.22 995.296 2655.93 1004.78 2598.64 1014.27 2544.28 974.194 2534.52 915.269Z" stroke="#000000" stroke-width="4.58333" stroke-linecap="butt" stroke-linejoin="miter" stroke-miterlimit="8" stroke-opacity="1" fill="none" fill-rule="evenodd"/><path d="M2571.59 903.215C2570.41 896.096 2576.38 889.179 2584.91 887.765 2593.45 886.352 2601.32 890.977 2602.5 898.096 2603.68 905.215 2597.72 912.132 2589.18 913.545 2580.65 914.959 2572.77 910.333 2571.59 903.215Z" stroke="#F4B183" stroke-width="4.58333" stroke-linecap="butt" stroke-linejoin="miter" stroke-miterlimit="8" stroke-opacity="1" fill="#F4B183" fill-rule="evenodd" fill-opacity="1"/><path d="M2670.42 892.765C2669.24 885.646 2675.2 878.729 2683.73 877.316 2692.27 875.902 2700.14 880.528 2701.32 887.647 2702.5 894.766 2696.54 901.682 2688 903.096 2679.47 904.509 2671.6 899.884 2670.42 892.765Z" stroke="#F4B183" stroke-width="4.58333" stroke-linecap="butt" stroke-linejoin="miter" stroke-miterlimit="8" stroke-opacity="1" fill="#F4B183" fill-rule="evenodd" fill-opacity="1"/><path d="M1484.98 378.566C1508.9 333.06 1566.28 316.137 1613.14 340.768 1660 365.398 1678.6 422.255 1654.68 467.761 1630.76 513.266 1573.38 530.189 1526.52 505.559 1479.66 480.928 1461.06 424.071 1484.98 378.566Z" stroke="#000000" stroke-width="4.58333" stroke-linecap="butt" stroke-linejoin="miter" stroke-miterlimit="8" stroke-opacity="1" fill="#FFFF00" fill-rule="evenodd" fill-opacity="1"/><path d="M1530.95 463.318C1537.49 450.881 1548.84 443.983 1556.32 447.912 1563.79 451.84 1564.55 465.106 1558.01 477.543 1551.48 489.98 1540.12 496.878 1532.65 492.95 1525.17 489.022 1524.41 475.755 1530.95 463.318Z" stroke="#000000" stroke-width="4.58333" stroke-linecap="butt" stroke-linejoin="miter" stroke-miterlimit="8" stroke-opacity="1" fill="#F8CBAD" fill-rule="evenodd" fill-opacity="1"/><path d="M1529.52 379.017C1533.77 370.918 1543.65 367.731 1551.58 371.898 1559.51 376.065 1562.48 386.009 1558.23 394.107 1553.97 402.206 1544.09 405.393 1536.16 401.225 1528.24 397.058 1525.26 387.115 1529.52 379.017Z" stroke="#000000" stroke-width="4.58333" stroke-linecap="butt" stroke-linejoin="miter" stroke-miterlimit="8" stroke-opacity="1" fill="#FFFFFF" fill-rule="evenodd" fill-opacity="1"/><path d="M1537.23 388.755C1538.83 385.718 1542.46 384.482 1545.34 385.995 1548.21 387.508 1549.25 391.196 1547.66 394.233 1546.06 397.27 1542.43 398.506 1539.56 396.993 1536.68 395.48 1535.64 391.792 1537.23 388.755Z" stroke="#000000" stroke-width="4.58333" stroke-linecap="butt" stroke-linejoin="miter" stroke-miterlimit="8" stroke-opacity="1" fill="#000000" fill-rule="evenodd" fill-opacity="1"/><path d="M1593.24 410.517C1597.5 402.418 1607.38 399.231 1615.31 403.398 1623.23 407.565 1626.21 417.508 1621.95 425.607 1617.7 433.705 1607.82 436.892 1599.89 432.725 1591.96 428.558 1588.99 418.615 1593.24 410.517Z" stroke="#000000" stroke-width="4.58333" stroke-linecap="butt" stroke-linejoin="miter" stroke-miterlimit="8" stroke-opacity="1" fill="#FFFFFF" fill-rule="evenodd" fill-opacity="1"/><path d="M1600.96 420.255C1602.56 417.218 1606.18 415.982 1609.06 417.495 1611.94 419.008 1612.98 422.696 1611.38 425.733 1609.79 428.77 1606.16 430.006 1603.28 428.493 1600.4 426.98 1599.36 423.292 1600.96 420.255Z" stroke="#000000" stroke-width="4.58333" stroke-linecap="butt" stroke-linejoin="miter" stroke-miterlimit="8" stroke-opacity="1" fill="#000000" fill-rule="evenodd" fill-opacity="1"/><path d="M2543.79 1657.42C2521.38 1608.29 2542.77 1550.41 2591.57 1528.15 2640.38 1505.88 2698.11 1527.65 2720.53 1576.78 2742.95 1625.91 2721.55 1683.79 2672.75 1706.06 2623.94 1728.32 2566.21 1706.55 2543.79 1657.42Z" stroke="#000000" stroke-width="4.58333" stroke-linecap="butt" stroke-linejoin="miter" stroke-miterlimit="8" stroke-opacity="1" fill="#FFFF00" fill-rule="evenodd" fill-opacity="1"/><path d="M2641.04 1674.97C2634.92 1661.55 2636.26 1647.78 2644.04 1644.23 2651.83 1640.68 2663.1 1648.69 2669.23 1662.11 2675.35 1675.54 2674.01 1689.3 2666.23 1692.86 2658.44 1696.41 2647.17 1688.4 2641.04 1674.97Z" stroke="#000000" stroke-width="4.58333" stroke-linecap="butt" stroke-linejoin="miter" stroke-miterlimit="8" stroke-opacity="1" fill="#F8CBAD" fill-rule="evenodd" fill-opacity="1"/><path d="M2571.47 1621.33C2567.48 1612.59 2570.94 1602.44 2579.19 1598.68 2587.45 1594.91 2597.38 1598.94 2601.37 1607.69 2605.36 1616.43 2601.9 1626.57 2593.64 1630.34 2585.38 1634.11 2575.46 1630.07 2571.47 1621.33Z" stroke="#000000" stroke-width="4.58333" stroke-linecap="butt" stroke-linejoin="miter" stroke-miterlimit="8" stroke-opacity="1" fill="#FFFFFF" fill-rule="evenodd" fill-opacity="1"/><path d="M2584.13 1621.36C2582.64 1618.08 2583.86 1614.31 2586.85 1612.94 2589.85 1611.58 2593.49 1613.12 2594.99 1616.4 2596.49 1619.68 2595.27 1623.45 2592.27 1624.82 2589.27 1626.18 2585.63 1624.64 2584.13 1621.36Z" stroke="#000000" stroke-width="4.58333" stroke-linecap="butt" stroke-linejoin="miter" stroke-miterlimit="8" stroke-opacity="1" fill="#000000" fill-rule="evenodd" fill-opacity="1"/><path d="M2636.21 1589.75C2632.22 1581.01 2635.68 1570.86 2643.94 1567.1 2652.2 1563.33 2662.12 1567.36 2666.11 1576.11 2670.1 1584.85 2666.64 1594.99 2658.39 1598.76 2650.13 1602.53 2640.2 1598.49 2636.21 1589.75Z" stroke="#000000" stroke-width="4.58333" stroke-linecap="butt" stroke-linejoin="miter" stroke-miterlimit="8" stroke-opacity="1" fill="#FFFFFF" fill-rule="evenodd" fill-opacity="1"/><path d="M2648.88 1589.78C2647.38 1586.5 2648.6 1582.73 2651.6 1581.36 2654.6 1580 2658.24 1581.54 2659.74 1584.82 2661.23 1588.1 2660.01 1591.87 2657.02 1593.24 2654.02 1594.6 2650.38 1593.05 2648.88 1589.78Z" stroke="#000000" stroke-width="4.58333" stroke-linecap="butt" stroke-linejoin="miter" stroke-miterlimit="8" stroke-opacity="1" fill="#000000" fill-rule="evenodd" fill-opacity="1"/><path d="M1423.68 650.077C1438.05 592.104 1495.4 556.436 1551.77 570.41 1608.13 584.384 1642.17 642.708 1627.8 700.681 1613.43 758.653 1556.08 794.321 1499.72 780.348 1443.35 766.374 1409.31 708.049 1423.68 650.077Z" stroke="#000000" stroke-width="4.58333" stroke-linecap="butt" stroke-linejoin="miter" stroke-miterlimit="8" stroke-opacity="1" fill="#C5E0B4" fill-rule="evenodd" fill-opacity="1"/><path d="M0 0 39.3189 27.0406" stroke="#000000" stroke-width="2.29167" stroke-linecap="butt" stroke-linejoin="miter" stroke-miterlimit="8" stroke-opacity="1" fill="none" fill-rule="evenodd" transform="matrix(-0.970617 -0.240629 -0.240629 0.970617 1590.11 648.621)"/><path d="M1545.34 665.381 1589.95 685.063" stroke="#000000" stroke-width="2.29167" stroke-linecap="butt" stroke-linejoin="miter" stroke-miterlimit="8" stroke-opacity="1" fill="none" fill-rule="evenodd"/><path d="M0 0 39.3189 27.0406" stroke="#000000" stroke-width="2.29167" stroke-linecap="butt" stroke-linejoin="miter" stroke-miterlimit="8" stroke-opacity="1" fill="none" fill-rule="evenodd" transform="matrix(0.828239 0.560375 0.560375 -0.828239 1463.3 655.849)"/><path d="M1511.1 655.545 1476 621.693" stroke="#000000" stroke-width="2.29167" stroke-linecap="butt" stroke-linejoin="miter" stroke-miterlimit="8" stroke-opacity="1" fill="none" fill-rule="evenodd"/><path d="M1477.6 731.147 1480.85 718.024C1482.65 710.776 1501.26 709.155 1522.43 714.403 1543.6 719.651 1559.3 729.78 1557.5 737.028L1554.25 750.151Z" stroke="#002060" stroke-width="4.58333" stroke-linecap="butt" stroke-linejoin="miter" stroke-miterlimit="8" stroke-opacity="1" fill="#F8CBAD" fill-rule="evenodd" fill-opacity="1"/><path d="M1480.76 718.393 1557.41 737.397C1553.74 746.401 1552.87 763.89 1549.2 772.894L1535.98 797.945C1528.64 813.574 1534.18 822.48 1533.28 834.748 1520.04 831.486 1504.32 835.399 1491.08 832.137L1456.62 815.744C1457.67 801.152 1447.83 796.607 1459.77 771.969 1483.6 751.201 1473.76 736.252 1480.76 718.393Z" stroke="#000000" stroke-width="4.58333" stroke-linecap="butt" stroke-linejoin="miter" stroke-miterlimit="8" stroke-opacity="1" fill="#385723" fill-rule="evenodd" fill-opacity="1"/><path d="M2258.69 1640.8C2242.29 1590.24 2271.47 1535.48 2323.86 1518.49 2376.25 1501.5 2432.02 1528.71 2448.42 1579.26 2464.82 1629.82 2435.64 1684.58 2383.25 1701.57 2330.86 1718.57 2275.09 1691.36 2258.69 1640.8Z" stroke="#000000" stroke-width="4.58333" stroke-linecap="butt" stroke-linejoin="miter" stroke-miterlimit="8" stroke-opacity="1" fill="#C5E0B4" fill-rule="evenodd" fill-opacity="1"/><path d="M0 0 37.2917 24.0629" stroke="#000000" stroke-width="2.29167" stroke-linecap="butt" stroke-linejoin="miter" stroke-miterlimit="8" stroke-opacity="1" fill="none" fill-rule="evenodd" transform="matrix(-0.951217 0.308523 0.308523 0.951217 2392.73 1558.54)"/><path d="M2364.58 1592.96 2410.22 1585.99" stroke="#000000" stroke-width="2.29167" stroke-linecap="butt" stroke-linejoin="miter" stroke-miterlimit="8" stroke-opacity="1" fill="none" fill-rule="evenodd"/><path d="M0 0 37.2917 24.0629" stroke="#000000" stroke-width="2.29167" stroke-linecap="butt" stroke-linejoin="miter" stroke-miterlimit="8" stroke-opacity="1" fill="none" fill-rule="evenodd" transform="matrix(0.999271 0.038175 0.038175 -0.999271 2293.8 1625.41)"/><path d="M2332.08 1602.79 2286.83 1593.61" stroke="#000000" stroke-width="2.29167" stroke-linecap="butt" stroke-linejoin="miter" stroke-miterlimit="8" stroke-opacity="1" fill="none" fill-rule="evenodd"/><path d="M2341.54 1675.4 2337.83 1663.96C2335.78 1657.64 2350.07 1647.34 2369.74 1640.96 2389.42 1634.58 2407.03 1634.53 2409.08 1640.85L2412.79 1652.3Z" stroke="#002060" stroke-width="4.58333" stroke-linecap="butt" stroke-linejoin="miter" stroke-miterlimit="8" stroke-opacity="1" fill="#F8CBAD" fill-rule="evenodd" fill-opacity="1"/><path d="M2337.94 1664.28 2409.19 1641.17C2410.57 1649.73 2418.32 1663.29 2419.7 1671.84L2421.11 1697.11C2422.73 1712.43 2431.52 1716.42 2436.72 1726.07 2424.43 1730.08 2413.59 1740.68 2401.3 1744.69L2365.47 1749.18C2359.27 1737.71 2349.1 1739.1 2346.85 1714.76 2356.1 1687.54 2340.91 1681.11 2337.94 1664.28Z" stroke="#000000" stroke-width="4.58333" stroke-linecap="butt" stroke-linejoin="miter" stroke-miterlimit="8" stroke-opacity="1" fill="#385723" fill-rule="evenodd" fill-opacity="1"/><path d="M1559.57 859.071C1584.46 811.92 1639.98 792.355 1683.58 815.372 1727.17 838.39 1742.32 895.273 1717.42 942.425 1692.53 989.576 1637.01 1009.14 1593.41 986.123 1549.82 963.106 1534.67 906.223 1559.57 859.071Z" stroke="#000000" stroke-width="4.58333" stroke-linecap="butt" stroke-linejoin="miter" stroke-miterlimit="8" stroke-opacity="1" fill="#FFFF00" fill-rule="evenodd" fill-opacity="1"/><path d="M1662.86 882.618C1665.23 878.122 1670.59 876.288 1674.81 878.52 1679.04 880.752 1680.54 886.206 1678.17 890.701 1675.8 895.197 1670.44 897.031 1666.22 894.799 1661.99 892.567 1660.49 887.113 1662.86 882.618Z" stroke="#000000" stroke-width="4.58333" stroke-linecap="butt" stroke-linejoin="miter" stroke-miterlimit="8" stroke-opacity="1" fill="#FFFF00" fill-rule="evenodd" fill-opacity="1"/><path d="M1610.98 855.222C1613.35 850.727 1618.7 848.892 1622.93 851.125 1627.16 853.357 1628.66 858.811 1626.29 863.306 1623.91 867.801 1618.56 869.636 1614.33 867.404 1610.11 865.171 1608.6 859.718 1610.98 855.222Z" stroke="#000000" stroke-width="4.58333" stroke-linecap="butt" stroke-linejoin="miter" stroke-miterlimit="8" stroke-opacity="1" fill="#FFFF00" fill-rule="evenodd" fill-opacity="1"/><path d="M1582.26 904.13 1664.63 947.628" stroke="#000000" stroke-width="2.29167" stroke-linecap="butt" stroke-linejoin="miter" stroke-miterlimit="8" stroke-opacity="1" fill="none" fill-rule="evenodd"/><path d="M1944.02 1638.3C1927.56 1580.89 1959.47 1521.37 2015.29 1505.37 2071.12 1489.36 2129.71 1522.94 2146.17 1580.35 2162.63 1637.77 2130.72 1697.28 2074.9 1713.29 2019.07 1729.29 1960.48 1695.72 1944.02 1638.3Z" stroke="#000000" stroke-width="4.58333" stroke-linecap="butt" stroke-linejoin="miter" stroke-miterlimit="8" stroke-opacity="1" fill="#FFFF00" fill-rule="evenodd" fill-opacity="1"/><path d="M2051.45 1575.57C2049.88 1570.09 2052.99 1564.4 2058.41 1562.84 2063.82 1561.29 2069.48 1564.47 2071.05 1569.95 2072.62 1575.42 2069.5 1581.12 2064.09 1582.67 2058.68 1584.22 2053.02 1581.04 2051.45 1575.57Z" stroke="#000000" stroke-width="4.58333" stroke-linecap="butt" stroke-linejoin="miter" stroke-miterlimit="8" stroke-opacity="1" fill="#FFFF00" fill-rule="evenodd" fill-opacity="1"/><path d="M1985 1594.61C1983.44 1589.14 1986.55 1583.44 1991.97 1581.89 1997.38 1580.34 2003.04 1583.52 2004.61 1588.99 2006.18 1594.47 2003.06 1600.16 1997.65 1601.71 1992.24 1603.27 1986.57 1600.09 1985 1594.61Z" stroke="#000000" stroke-width="4.58333" stroke-linecap="butt" stroke-linejoin="miter" stroke-miterlimit="8" stroke-opacity="1" fill="#FFFF00" fill-rule="evenodd" fill-opacity="1"/><path d="M1999.59 1656.45 2105.09 1626.21" stroke="#000000" stroke-width="2.29167" stroke-linecap="butt" stroke-linejoin="miter" stroke-miterlimit="8" stroke-opacity="1" fill="none" fill-rule="evenodd"/><path d="M1781.44 917.018C1788.41 868.371 1837.57 835.173 1891.23 842.867 1944.89 850.562 1982.74 896.234 1975.77 944.88 1968.79 993.527 1919.63 1026.72 1865.97 1019.03 1812.31 1011.34 1774.46 965.664 1781.44 917.018Z" fill="#FFC000" fill-rule="evenodd" fill-opacity="1"/><path d="M1841.13 898.692C1841.86 893.624 1846.98 890.166 1852.57 890.968 1858.16 891.769 1862.1 896.527 1861.37 901.594 1860.65 906.661 1855.53 910.119 1849.94 909.318 1844.35 908.516 1840.4 903.759 1841.13 898.692M1903.39 907.618C1904.11 902.551 1909.23 899.093 1914.82 899.894 1920.41 900.696 1924.36 905.453 1923.63 910.52 1922.9 915.588 1917.78 919.046 1912.19 918.244 1906.6 917.443 1902.66 912.685 1903.39 907.618" stroke="#000000" stroke-width="4.58333" stroke-linecap="butt" stroke-linejoin="miter" stroke-miterlimit="8" stroke-opacity="1" fill="#CD9A00" fill-rule="evenodd" fill-opacity="1"/><path d="M1820.35 962.371C1852.54 987.77 1887.61 992.798 1925.55 977.456" stroke="#000000" stroke-width="4.58333" stroke-linecap="butt" stroke-linejoin="miter" stroke-miterlimit="8" stroke-opacity="1" fill="none" fill-rule="evenodd"/><path d="M1781.44 917.018C1788.41 868.371 1837.57 835.173 1891.23 842.867 1944.89 850.562 1982.74 896.234 1975.77 944.88 1968.79 993.527 1919.63 1026.72 1865.97 1019.03 1812.31 1011.34 1774.46 965.664 1781.44 917.018Z" stroke="#000000" stroke-width="4.58333" stroke-linecap="butt" stroke-linejoin="miter" stroke-miterlimit="8" stroke-opacity="1" fill="none" fill-rule="evenodd"/><path d="M1896.06 986.143 1895.91 1001.87C1895.83 1010.56 1890.08 1017.55 1883.07 1017.48 1876.06 1017.42 1870.45 1010.32 1870.53 1001.63L1870.68 985.901Z" stroke="#000000" stroke-width="4.58333" stroke-linecap="butt" stroke-linejoin="miter" stroke-miterlimit="8" stroke-opacity="1" fill="#FF0000" fill-rule="evenodd" fill-opacity="1"/><path d="M1609.71 1615.63C1601.69 1556.44 1641.83 1502.14 1699.38 1494.34 1756.92 1486.54 1810.08 1528.19 1818.1 1587.38 1826.13 1646.56 1785.98 1700.87 1728.44 1708.67 1670.89 1716.47 1617.74 1674.82 1609.71 1615.63Z" fill="#FFC000" fill-rule="evenodd" fill-opacity="1"/><path d="M1665.33 1575.45C1664.49 1569.29 1668.67 1563.63 1674.67 1562.82 1680.66 1562 1686.2 1566.34 1687.03 1572.51 1687.87 1578.67 1683.69 1584.33 1677.69 1585.14 1671.7 1585.95 1666.16 1581.62 1665.33 1575.45M1732.09 1566.4C1731.25 1560.23 1735.43 1554.58 1741.43 1553.76 1747.42 1552.95 1752.96 1557.29 1753.8 1563.46 1754.63 1569.62 1750.45 1575.28 1744.46 1576.09 1738.46 1576.9 1732.92 1572.56 1732.09 1566.4" stroke="#000000" stroke-width="4.58333" stroke-linecap="butt" stroke-linejoin="miter" stroke-miterlimit="8" stroke-opacity="1" fill="#CD9A00" fill-rule="evenodd" fill-opacity="1"/><path d="M1663.86 1656.58C1704.87 1676.25 1742.48 1671.15 1776.68 1641.28" stroke="#000000" stroke-width="4.58333" stroke-linecap="butt" stroke-linejoin="miter" stroke-miterlimit="8" stroke-opacity="1" fill="none" fill-rule="evenodd"/><path d="M1609.71 1615.63C1601.69 1556.44 1641.83 1502.14 1699.38 1494.34 1756.92 1486.54 1810.08 1528.19 1818.1 1587.38 1826.13 1646.56 1785.98 1700.87 1728.44 1708.67 1670.89 1716.47 1617.74 1674.82 1609.71 1615.63Z" stroke="#000000" stroke-width="4.58333" stroke-linecap="butt" stroke-linejoin="miter" stroke-miterlimit="8" stroke-opacity="1" fill="none" fill-rule="evenodd"/><path d="M1748.82 1660.98 1753.88 1679.42C1756.67 1689.61 1753.06 1699.47 1745.82 1701.46 1738.58 1703.44 1730.45 1696.8 1727.65 1686.61L1722.6 1668.18Z" stroke="#000000" stroke-width="4.58333" stroke-linecap="butt" stroke-linejoin="miter" stroke-miterlimit="8" stroke-opacity="1" fill="#FF0000" fill-rule="evenodd" fill-opacity="1"/></g></svg>