<svg width="2512" height="1705" xmlns="http://www.w3.org/2000/svg" xmlns:xlink="http://www.w3.org/1999/xlink" xml:space="preserve" overflow="hidden"><defs><clipPath id="clip0"><rect x="513" y="210" width="2512" height="1705"/></clipPath></defs><g clip-path="url(#clip0)" transform="translate(-513 -210)"><path d="M0 0 0.000360892 329.554" stroke="#000000" stroke-width="2.29167" stroke-linecap="butt" stroke-linejoin="miter" stroke-miterlimit="8" stroke-opacity="1" fill="none" fill-rule="evenodd" transform="matrix(1 0 0 -1 2920 1654.55)"/><path d="M0 0 0.000360892 329.554" stroke="#000000" stroke-width="2.29167" stroke-linecap="butt" stroke-linejoin="miter" stroke-miterlimit="8" stroke-opacity="1" fill="none" fill-rule="evenodd" transform="matrix(1 0 0 -1 1925 1667.55)"/><path d="M0 0 0.000360892 593.197" stroke="#000000" stroke-width="2.29167" stroke-linecap="butt" stroke-linejoin="miter" stroke-miterlimit="8" stroke-opacity="1" fill="none" fill-rule="evenodd" transform="matrix(1 0 0 -1 634 1588.2)"/><path d="M0 0 0.000360892 329.554" stroke="#000000" stroke-width="2.29167" stroke-linecap="butt" stroke-linejoin="miter" stroke-miterlimit="8" stroke-opacity="1" fill="none" fill-rule="evenodd" transform="matrix(1 0 0 -1 1585 995.554)"/><path d="M0 0 0.000360892 329.554" stroke="#000000" stroke-width="2.29167" stroke-linecap="butt" stroke-linejoin="miter" stroke-miterlimit="8" stroke-opacity="1" fill="none" fill-rule="evenodd" transform="matrix(1 0 0 -1 2259 665.554)"/><path d="M0 0 1291.46 0.000360892" stroke="#000000" stroke-width="2.29167" stroke-linecap="butt" stroke-linejoin="miter" stroke-miterlimit="8" stroke-opacity="1" fill="none" fill-rule="evenodd" transform="matrix(-1 0 0 1 1925.46 1654)"/><path d="M0 0 1009.97 0.000360892" stroke="#000000" stroke-width="2.29167" stroke-linecap="butt" stroke-linejoin="miter" stroke-miterlimit="8" stroke-opacity="1" fill="none" fill-rule="evenodd" transform="matrix(-1 0 0 1 1643.97 982)"/><path d="M1493.5 996.5C1493.5 932.987 1544.76 881.5 1608 881.5 1671.24 881.5 1722.5 932.987 1722.5 996.5 1722.5 1060.01 1671.24 1111.5 1608 1111.5 1544.76 1111.5 1493.5 1060.01 1493.5 996.5Z" stroke="#000000" stroke-width="4.58333" stroke-linecap="butt" stroke-linejoin="miter" stroke-miterlimit="8" stroke-opacity="1" fill="#FF0000" fill-rule="evenodd" fill-opacity="1"/><text fill="#000000" fill-opacity="1" font-family="Calibri,Calibri_MSFontService,sans-serif" font-style="normal" font-variant="normal" font-weight="400" font-stretch="normal" font-size="220" text-anchor="start" direction="ltr" writing-mode="lr-tb" unicode-bidi="normal" text-decoration="none" transform="matrix(1 0 0 1 1550.1 1070)">X</text><path d="M0 0 615.363 0.000360892" stroke="#000000" stroke-width="2.29167" stroke-linecap="butt" stroke-linejoin="miter" stroke-miterlimit="8" stroke-opacity="1" fill="none" fill-rule="evenodd" transform="matrix(-1 0 0 1 2258.36 685)"/><path d="M0 0 890.312 0.000360892" stroke="#000000" stroke-width="2.29167" stroke-linecap="butt" stroke-linejoin="miter" stroke-miterlimit="8" stroke-opacity="1" fill="none" fill-rule="evenodd" transform="matrix(-1 0 0 1 2874.31 1338)"/><path d="M0 0 615.363 0.000360892" stroke="#000000" stroke-width="2.29167" stroke-linecap="butt" stroke-linejoin="miter" stroke-miterlimit="8" stroke-opacity="1" fill="none" fill-rule="evenodd" transform="matrix(-1 0 0 1 2874.36 336)"/><path d="M1817.5 1332C1817.5 1268.21 1868.76 1216.5 1932 1216.5 1995.24 1216.5 2046.5 1268.21 2046.5 1332 2046.5 1395.79 1995.24 1447.5 1932 1447.5 1868.76 1447.5 1817.5 1395.79 1817.5 1332Z" stroke="#000000" stroke-width="4.58333" stroke-linecap="butt" stroke-linejoin="miter" stroke-miterlimit="8" stroke-opacity="1" fill="#00B0F0" fill-rule="evenodd" fill-opacity="1"/><path d="M2142.5 1332C2142.5 1268.21 2193.76 1216.5 2257 1216.5 2320.24 1216.5 2371.5 1268.21 2371.5 1332 2371.5 1395.79 2320.24 1447.5 2257 1447.5 2193.76 1447.5 2142.5 1395.79 2142.5 1332Z" stroke="#000000" stroke-width="4.58333" stroke-linecap="butt" stroke-linejoin="miter" stroke-miterlimit="8" stroke-opacity="1" fill="#7030A0" fill-rule="evenodd" fill-opacity="1"/><path d="M2467.5 1332C2467.5 1268.21 2518.76 1216.5 2582 1216.5 2645.24 1216.5 2696.5 1268.21 2696.5 1332 2696.5 1395.79 2645.24 1447.5 2582 1447.5 2518.76 1447.5 2467.5 1395.79 2467.5 1332Z" stroke="#000000" stroke-width="4.58333" stroke-linecap="butt" stroke-linejoin="miter" stroke-miterlimit="8" stroke-opacity="1" fill="#FF0000" fill-rule="evenodd" fill-opacity="1"/><path d="M2792.5 1332C2792.5 1268.21 2843.76 1216.5 2907 1216.5 2970.24 1216.5 3021.5 1268.21 3021.5 1332 3021.5 1395.79 2970.24 1447.5 2907 1447.5 2843.76 1447.5 2792.5 1395.79 2792.5 1332Z" stroke="#000000" stroke-width="4.58333" stroke-linecap="butt" stroke-linejoin="miter" stroke-miterlimit="8" stroke-opacity="1" fill="#FFC000" fill-rule="evenodd" fill-opacity="1"/><path d="M2792.5 1650.5C2792.5 1586.99 2843.76 1535.5 2907 1535.5 2970.24 1535.5 3021.5 1586.99 3021.5 1650.5 3021.5 1714.01 2970.24 1765.5 2907 1765.5 2843.76 1765.5 2792.5 1714.01 2792.5 1650.5Z" stroke="#000000" stroke-width="4.58333" stroke-linecap="butt" stroke-linejoin="miter" stroke-miterlimit="8" stroke-opacity="1" fill="#FFFF00" fill-rule="evenodd" fill-opacity="1"/><text fill="#000000" fill-opacity="1" font-family="Calibri,Calibri_MSFontService,sans-serif" font-style="normal" font-variant="normal" font-weight="700" font-stretch="normal" font-size="55" text-anchor="start" direction="ltr" writing-mode="lr-tb" unicode-bidi="normal" text-decoration="none" transform="matrix(1 0 0 1 2862.95 1668)">End</text><path d="M843.5 1650.5C843.5 1586.99 894.763 1535.5 958 1535.5 1021.24 1535.5 1072.5 1586.99 1072.5 1650.5 1072.5 1714.01 1021.24 1765.5 958 1765.5 894.763 1765.5 843.5 1714.01 843.5 1650.5Z" stroke="#000000" stroke-width="4.58333" stroke-linecap="butt" stroke-linejoin="miter" stroke-miterlimit="8" stroke-opacity="1" fill="#FF0000" fill-rule="evenodd" fill-opacity="1"/><path d="M1168.5 1650.5C1168.5 1586.99 1219.76 1535.5 1283 1535.5 1346.24 1535.5 1397.5 1586.99 1397.5 1650.5 1397.5 1714.01 1346.24 1765.5 1283 1765.5 1219.76 1765.5 1168.5 1714.01 1168.5 1650.5Z" stroke="#000000" stroke-width="4.58333" stroke-linecap="butt" stroke-linejoin="miter" stroke-miterlimit="8" stroke-opacity="1" fill="#FFC000" fill-rule="evenodd" fill-opacity="1"/><path d="M1493.5 1650.5C1493.5 1586.99 1544.76 1535.5 1608 1535.5 1671.24 1535.5 1722.5 1586.99 1722.5 1650.5 1722.5 1714.01 1671.24 1765.5 1608 1765.5 1544.76 1765.5 1493.5 1714.01 1493.5 1650.5Z" stroke="#000000" stroke-width="4.58333" stroke-linecap="butt" stroke-linejoin="miter" stroke-miterlimit="8" stroke-opacity="1" fill="#FFFF00" fill-rule="evenodd" fill-opacity="1"/><text fill="#000000" fill-opacity="1" font-family="Calibri,Calibri_MSFontService,sans-serif" font-style="normal" font-variant="normal" font-weight="400" font-stretch="normal" font-size="220" text-anchor="start" direction="ltr" writing-mode="lr-tb" unicode-bidi="normal" text-decoration="none" transform="matrix(1 0 0 1 1550.1 1724)">X</text><path d="M1817.5 1650.5C1817.5 1586.99 1868.76 1535.5 1932 1535.5 1995.24 1535.5 2046.5 1586.99 2046.5 1650.5 2046.5 1714.01 1995.24 1765.5 1932 1765.5 1868.76 1765.5 1817.5 1714.01 1817.5 1650.5Z" stroke="#000000" stroke-width="4.58333" stroke-linecap="butt" stroke-linejoin="miter" stroke-miterlimit="8" stroke-opacity="1" fill="#92D050" fill-rule="evenodd" fill-opacity="1"/><path d="M633 881.5C696.237 881.5 747.5 932.987 747.5 996.5 747.5 1060.01 696.237 1111.5 633 1111.5 569.763 1111.5 518.5 1060.01 518.5 996.5 518.5 932.987 569.763 881.5 633 881.5Z" stroke="#000000" stroke-width="4.58333" stroke-linecap="butt" stroke-linejoin="miter" stroke-miterlimit="8" stroke-opacity="1" fill="#92D050" fill-rule="evenodd" fill-opacity="1"/><path d="M633 1208.5C696.237 1208.5 747.5 1259.99 747.5 1323.5 747.5 1387.01 696.237 1438.5 633 1438.5 569.763 1438.5 518.5 1387.01 518.5 1323.5 518.5 1259.99 569.763 1208.5 633 1208.5Z" stroke="#000000" stroke-width="4.58333" stroke-linecap="butt" stroke-linejoin="miter" stroke-miterlimit="8" stroke-opacity="1" fill="#00B0F0" fill-rule="evenodd" fill-opacity="1"/><path d="M633 1535.5C696.237 1535.5 747.5 1586.99 747.5 1650.5 747.5 1714.01 696.237 1765.5 633 1765.5 569.763 1765.5 518.5 1714.01 518.5 1650.5 518.5 1586.99 569.763 1535.5 633 1535.5Z" stroke="#000000" stroke-width="4.58333" stroke-linecap="butt" stroke-linejoin="miter" stroke-miterlimit="8" stroke-opacity="1" fill="#7030A0" fill-rule="evenodd" fill-opacity="1"/><path d="M843.5 996.5C843.5 932.987 894.763 881.5 958 881.5 1021.24 881.5 1072.5 932.987 1072.5 996.5 1072.5 1060.01 1021.24 1111.5 958 1111.5 894.763 1111.5 843.5 1060.01 843.5 996.5Z" stroke="#000000" stroke-width="4.58333" stroke-linecap="butt" stroke-linejoin="miter" stroke-miterlimit="8" stroke-opacity="1" fill="#FFFF00" fill-rule="evenodd" fill-opacity="1"/><path d="M1168.5 996.5C1168.5 932.987 1219.76 881.5 1283 881.5 1346.24 881.5 1397.5 932.987 1397.5 996.5 1397.5 1060.01 1346.24 1111.5 1283 1111.5 1219.76 1111.5 1168.5 1060.01 1168.5 996.5Z" stroke="#000000" stroke-width="4.58333" stroke-linecap="butt" stroke-linejoin="miter" stroke-miterlimit="8" stroke-opacity="1" fill="#FFC000" fill-rule="evenodd" fill-opacity="1"/><path d="M1493.5 674C1493.5 610.211 1544.76 558.5 1608 558.5 1671.24 558.5 1722.5 610.211 1722.5 674 1722.5 737.789 1671.24 789.5 1608 789.5 1544.76 789.5 1493.5 737.789 1493.5 674Z" stroke="#000000" stroke-width="4.58333" stroke-linecap="butt" stroke-linejoin="miter" stroke-miterlimit="8" stroke-opacity="1" fill="#7030A0" fill-rule="evenodd" fill-opacity="1"/><path d="M1817.5 674C1817.5 610.211 1868.76 558.5 1932 558.5 1995.24 558.5 2046.5 610.211 2046.5 674 2046.5 737.789 1995.24 789.5 1932 789.5 1868.76 789.5 1817.5 737.789 1817.5 674Z" stroke="#000000" stroke-width="4.58333" stroke-linecap="butt" stroke-linejoin="miter" stroke-miterlimit="8" stroke-opacity="1" fill="#00B0F0" fill-rule="evenodd" fill-opacity="1"/><path d="M2142.5 674C2142.5 610.211 2193.76 558.5 2257 558.5 2320.24 558.5 2371.5 610.211 2371.5 674 2371.5 737.789 2320.24 789.5 2257 789.5 2193.76 789.5 2142.5 737.789 2142.5 674Z" stroke="#000000" stroke-width="4.58333" stroke-linecap="butt" stroke-linejoin="miter" stroke-miterlimit="8" stroke-opacity="1" fill="#92D050" fill-rule="evenodd" fill-opacity="1"/><path d="M2142.5 329.5C2142.5 265.987 2193.76 214.5 2257 214.5 2320.24 214.5 2371.5 265.987 2371.5 329.5 2371.5 393.013 2320.24 444.5 2257 444.5 2193.76 444.5 2142.5 393.013 2142.5 329.5Z" stroke="#000000" stroke-width="4.58333" stroke-linecap="butt" stroke-linejoin="miter" stroke-miterlimit="8" stroke-opacity="1" fill="#FFFF00" fill-rule="evenodd" fill-opacity="1"/><path d="M2467.5 329.5C2467.5 265.987 2518.76 214.5 2582 214.5 2645.24 214.5 2696.5 265.987 2696.5 329.5 2696.5 393.013 2645.24 444.5 2582 444.5 2518.76 444.5 2467.5 393.013 2467.5 329.5Z" stroke="#000000" stroke-width="4.58333" stroke-linecap="butt" stroke-linejoin="miter" stroke-miterlimit="8" stroke-opacity="1" fill="#FFC000" fill-rule="evenodd" fill-opacity="1"/><path d="M2792.5 329.5C2792.5 265.987 2843.76 214.5 2907 214.5 2970.24 214.5 3021.5 265.987 3021.5 329.5 3021.5 393.013 2970.24 444.5 2907 444.5 2843.76 444.5 2792.5 393.013 2792.5 329.5Z" stroke="#000000" stroke-width="4.58333" stroke-linecap="butt" stroke-linejoin="miter" stroke-miterlimit="8" stroke-opacity="1" fill="#FF0000" fill-rule="evenodd" fill-opacity="1"/><text fill="#000000" fill-opacity="1" font-family="Calibri,Calibri_MSFontService,sans-serif" font-style="normal" font-variant="normal" font-weight="700" font-stretch="normal" font-size="46" text-anchor="start" direction="ltr" writing-mode="lr-tb" unicode-bidi="normal" text-decoration="none" transform="matrix(1 0 0 1 2860.09 344)">Start</text><path d="M2537.5 291.5 2626.69 382.127" stroke="#000000" stroke-width="14.8958" stroke-linecap="butt" stroke-linejoin="miter" stroke-miterlimit="8" stroke-opacity="1" fill="none" fill-rule="evenodd"/><path d="M1884.5 620.5 1973.69 711.127" stroke="#000000" stroke-width="14.8958" stroke-linecap="butt" stroke-linejoin="miter" stroke-miterlimit="8" stroke-opacity="1" fill="none" fill-rule="evenodd"/><path d="M0 0 130.019 107.105" stroke="#000000" stroke-width="14.8958" stroke-linecap="butt" stroke-linejoin="miter" stroke-miterlimit="8" stroke-opacity="1" fill="none" fill-rule="evenodd" transform="matrix(-1 0 0 1 1347.52 930.5)"/><path d="M2178.5 381.5 2249.5 252.5 2320.5 381.5Z" stroke="#000000" stroke-width="4.58333" stroke-linecap="butt" stroke-linejoin="miter" stroke-miterlimit="8" stroke-opacity="1" fill="none" fill-rule="evenodd"/><path d="M2514.5 1388.5 2585.5 1258.5 2656.5 1388.5Z" stroke="#000000" stroke-width="4.58333" stroke-linecap="butt" stroke-linejoin="miter" stroke-miterlimit="8" stroke-opacity="1" fill="none" fill-rule="evenodd"/><path d="M2179.5 723.5 2251 593.5 2322.5 723.5Z" stroke="#000000" stroke-width="4.58333" stroke-linecap="butt" stroke-linejoin="miter" stroke-miterlimit="8" stroke-opacity="1" fill="none" fill-rule="evenodd"/><path d="M547.5 997C547.5 954.198 584.437 919.5 630 919.5 675.564 919.5 712.5 954.198 712.5 997 712.5 1039.8 675.564 1074.5 630 1074.5 584.437 1074.5 547.5 1039.8 547.5 997Z" stroke="#000000" stroke-width="4.58333" stroke-linecap="butt" stroke-linejoin="miter" stroke-miterlimit="8" stroke-opacity="1" fill="none" fill-rule="evenodd"/><path d="M1526.5 672.5C1526.5 629.974 1563.44 595.5 1609 595.5 1654.56 595.5 1691.5 629.974 1691.5 672.5 1691.5 715.026 1654.56 749.5 1609 749.5 1563.44 749.5 1526.5 715.026 1526.5 672.5Z" stroke="#000000" stroke-width="4.58333" stroke-linecap="butt" stroke-linejoin="miter" stroke-miterlimit="8" stroke-opacity="1" fill="none" fill-rule="evenodd"/><path d="M2176.5 1336C2176.5 1293.2 2213.66 1258.5 2259.5 1258.5 2305.34 1258.5 2342.5 1293.2 2342.5 1336 2342.5 1378.8 2305.34 1413.5 2259.5 1413.5 2213.66 1413.5 2176.5 1378.8 2176.5 1336Z" stroke="#000000" stroke-width="4.58333" stroke-linecap="butt" stroke-linejoin="miter" stroke-miterlimit="8" stroke-opacity="1" fill="none" fill-rule="evenodd"/><text fill="#000000" fill-opacity="1" font-family="Arial,Arial_MSFontService,sans-serif" font-style="normal" font-variant="normal" font-weight="400" font-stretch="normal" font-size="275" text-anchor="start" direction="ltr" writing-mode="lr-tb" unicode-bidi="normal" text-decoration="none" transform="matrix(1 0 0 1 894.817 1068)">x</text><path d="M0 0 130.019 107.105" stroke="#000000" stroke-width="14.8958" stroke-linecap="butt" stroke-linejoin="miter" stroke-miterlimit="8" stroke-opacity="1" fill="none" fill-rule="evenodd" transform="matrix(-1 0 0 1 1015.52 1597.5)"/><path d="M1929 1239 1929 1408.45" stroke="#000000" stroke-width="16.0417" stroke-linecap="butt" stroke-linejoin="miter" stroke-miterlimit="8" stroke-opacity="1" fill="none" fill-rule="evenodd"/><path d="M0 0 130.838 0.000360892" stroke="#000000" stroke-width="16.0417" stroke-linecap="butt" stroke-linejoin="miter" stroke-miterlimit="8" stroke-opacity="1" fill="none" fill-rule="evenodd" transform="matrix(-1 0 0 1 1998.84 1323)"/><path d="M634 1244 634 1413.45" stroke="#000000" stroke-width="16.0417" stroke-linecap="butt" stroke-linejoin="miter" stroke-miterlimit="8" stroke-opacity="1" fill="none" fill-rule="evenodd"/><path d="M0 0 130.838 0.000360892" stroke="#000000" stroke-width="16.0417" stroke-linecap="butt" stroke-linejoin="miter" stroke-miterlimit="8" stroke-opacity="1" fill="none" fill-rule="evenodd" transform="matrix(-1 0 0 1 702.838 1329)"/><path d="M2913 1244 2913 1413.45" stroke="#000000" stroke-width="16.0417" stroke-linecap="butt" stroke-linejoin="miter" stroke-miterlimit="8" stroke-opacity="1" fill="none" fill-rule="evenodd"/><path d="M0 0 130.838 0.000360892" stroke="#000000" stroke-width="16.0417" stroke-linecap="butt" stroke-linejoin="miter" stroke-miterlimit="8" stroke-opacity="1" fill="none" fill-rule="evenodd" transform="matrix(-1 0 0 1 2981.84 1329)"/><path d="M1205.5 1700.5 1276.5 1571.5 1347.5 1700.5Z" stroke="#000000" stroke-width="4.58333" stroke-linecap="butt" stroke-linejoin="miter" stroke-miterlimit="8" stroke-opacity="1" fill="none" fill-rule="evenodd"/><path d="M550.5 1650.5C550.5 1607.97 587.66 1573.5 633.5 1573.5 679.339 1573.5 716.5 1607.97 716.5 1650.5 716.5 1693.03 679.339 1727.5 633.5 1727.5 587.66 1727.5 550.5 1693.03 550.5 1650.5Z" stroke="#000000" stroke-width="4.58333" stroke-linecap="butt" stroke-linejoin="miter" stroke-miterlimit="8" stroke-opacity="1" fill="none" fill-rule="evenodd"/><path d="M1876.5 1597.5 1965.69 1688.13" stroke="#000000" stroke-width="14.8958" stroke-linecap="butt" stroke-linejoin="miter" stroke-miterlimit="8" stroke-opacity="1" fill="none" fill-rule="evenodd"/></g></svg>